HIERARCHY
ROOT HipCenter
{
    OFFSET 0.0 0.0 -0.0
    CHANNELS 6 Xposition Yposition Zposition Zrotation Xrotation Yrotation
    JOINT Spine
    {
        OFFSET 0.0 0.12162094563245773 0.0
        CHANNELS 3 Zrotation Xrotation Yrotation
        JOINT ShoulderCenter
        {
            OFFSET 0.0 0.3336820900440216 0.0
            CHANNELS 3 Zrotation Xrotation Yrotation
            JOINT LeftShoulder
            {
                OFFSET 0.2234182357788086 0.0 0.0
                CHANNELS 3 Zrotation Xrotation Yrotation
                JOINT LeftElbow
                {
                    OFFSET 0.3044271171092987 0.0 0.0
                    CHANNELS 3 Zrotation Xrotation Yrotation
                    JOINT LeftWrist
                    {
                        OFFSET 0.3115454912185669 0.0 0.0
                        CHANNELS 3 Zrotation Xrotation Yrotation
                        JOINT LeftHand
                        {
                            OFFSET 0.03333012014627457 0.0 0.0
                            CHANNELS 3 Zrotation Xrotation Yrotation
                            End Site
                            {
                                OFFSET 0.013332046568393707 0.0 0.0
                            }
                        }
                    }
                }
            }
            JOINT RightShoulder
            {
                OFFSET -0.2234182357788086 0.0 0.0
                CHANNELS 3 Zrotation Xrotation Yrotation
                JOINT RightElbow
                {
                    OFFSET -0.3044271171092987 0.0 0.0
                    CHANNELS 3 Zrotation Xrotation Yrotation
                    JOINT RightWrist
                    {
                        OFFSET -0.3115454912185669 0.0 0.0
                        CHANNELS 3 Zrotation Xrotation Yrotation
                        JOINT RightHand
                        {
                            OFFSET -0.03333012014627457 0.0 0.0
                            CHANNELS 3 Zrotation Xrotation Yrotation
                            End Site
                            {
                                OFFSET -0.013332046568393707 0.0 0.0
                            }
                        }
                    }
                }
            }
            End Site
            {
                OFFSET 0.0 0.13347283005714417 0.0
            }
        }
    }
    JOINT LeftHip
    {
        OFFSET 0.1371600329875946 0.0 0.0
        CHANNELS 3 Zrotation Xrotation Yrotation
        JOINT LeftKnee
        {
            OFFSET 0.0 -0.4269828498363495 0.0
            CHANNELS 3 Zrotation Xrotation Yrotation
            JOINT LeftAnkle
            {
                OFFSET 0.0 -0.43514883518218994 0.0
                CHANNELS 3 Zrotation Xrotation Yrotation
                JOINT LeftFoot
                {
                    OFFSET 0.0 -0.13786180317401886 0.0
                    CHANNELS 3 Zrotation Xrotation Yrotation
                    End Site
                    {
                        OFFSET 0.0 0.0 0.055144719779491425
                    }
                }
            }
        }
    }
    JOINT RightHip
    {
        OFFSET -0.1371600329875946 0.0 0.0
        CHANNELS 3 Zrotation Xrotation Yrotation
        JOINT RightKnee
        {
            OFFSET 0.0 -0.4269828498363495 0.0
            CHANNELS 3 Zrotation Xrotation Yrotation
            JOINT RightAnkle
            {
                OFFSET 0.0 -0.43514883518218994 0.0
                CHANNELS 3 Zrotation Xrotation Yrotation
                JOINT RightFoot
                {
                    OFFSET 0.0 -0.13786180317401886 0.0
                    CHANNELS 3 Zrotation Xrotation Yrotation
                    End Site
                    {
                        OFFSET 0.0 0.0 0.055144719779491425
                    }
                }
            }
        }
    }
}
MOTION
Frames: 4
Frame Time: 0.03333333333333333
0.9639999866485596 -0.07400000095367432 2.078000068664551 16.44858567388145 -26.254328493830393 -154.81155515367138 2.6047644513100807 8.683440334945312 -2.3903231366783118 -1.8345880370728384e-06 -1.585356084227049e-06 16.54792817860057 98.33231975075013 4.990702018552192 147.97062602405657 -4.330673543600313e-06 2.7954669333880707e-06 62.442057879509676 4.230495053625577e-06 -56.869490679776106 23.525136848640866 0.0 -6.361109362927035e-15 0.0 -105.50230147586191 -11.552180942312525 177.02115409417175 -2.345812659818228e-06 1.287024465958418e-07 -84.7958943478578 -9.02760542190419e-06 -57.878563448275536 -28.33335451932506 0.0 0.0 3.1805546814635168e-15 72.8536664741575 -79.84654817420575 139.6025018196676 43.71860964467886 14.634376099594894 -62.322440100667706 -19.03917971027375 -58.63700126076056 50.159788371646016 8.827812596100317e-32 6.361109362927035e-15 -1.5902773407317588e-15 3.9124801334876285 -15.729268968375454 29.030865890134553 25.074766978410544 40.39541810069668 7.479215697096619 -60.7225271787776 -45.665677699930995 -62.3027177625702 0.0 0.0 -1.93815050901683e-15
0.9240000247955322 -0.07999999821186066 2.003999948501587 18.939017800454486 -27.859615963801936 -154.09356135141667 2.366540743009715 9.880691432647222 -2.1790081649230912 2.779224388171935e-07 -1.164009924801968e-06 14.833603976106778 96.45338498386532 7.323857116995054 152.81499619708865 2.1367947776966215e-06 -3.2042150048988455e-06 60.98763454524655 8.672570075769627e-06 -61.96481619472582 25.219457107912547 -6.361109362927032e-15 6.361109362927032e-15 3.531125038440127e-31 -102.54517881169157 -10.528235693402062 178.70196354089714 1.7227894750128818e-06 -9.726718837784106e-07 -87.04715984129002 -6.84333255874431e-06 -57.31435418876629 -26.873672830665818 -4.4139062980501586e-32 3.1805546814635168e-15 1.5902773407317584e-15 81.12770733022516 -80.17229278529074 145.01736154098765 49.138563775683664 19.171430874847758 -86.76415004901058 17.253433515305975 -59.161735985608516 87.73344234520525 0.0 0.0 1.5902773407317584e-15 3.9213250831771496 -26.978515457783107 22.816705056254943 39.697950766893 55.34043432256751 2.3532868401314055 -70.34285559978193 -39.90965355079115 -63.09812207288079 0.0 0.0 4.472655020808071e-16
0.8849999904632568 -0.09200000017881393 1.9359999895095825 22.10943487155314 -31.29932045897927 -152.43713504207963 2.013141421043571 9.80227851432655 -1.6966898327120483 -1.9936361723716449e-07 -9.731831412224726e-07 12.539104719988643 94.59597386970924 7.999163049465712 159.86471603262459 -4.7070902395450874e-07 3.1563872870243794e-06 59.318007835544584 7.62027884399897e-07 -61.575533013336134 25.980850388488548 3.1805546814635168e-15 -6.3611093629270335e-15 6.3611093629270335e-15 -100.55130758261132 -9.417859196347042 178.91535593992847 -2.6922188676437935e-07 -2.848997130830636e-06 -87.55713159393503 2.578327602410209e-07 -55.943984308608556 -26.88383900687332 0.0 -6.361109362927033e-15 0.0 98.88977076533097 -81.29638528311949 159.1685931854779 56.0809285732421 24.24443978534695 -105.87550313606357 54.431775407139554 -56.07731273137862 124.11589083297714 6.3611093629270335e-15 5.29668755766019e-31 9.54166404439055e-15 2.1271957802093584 -41.86975905152966 11.93276595127518 60.605797877383516 69.45995523801055 -10.411900623477692 -81.86016966315621 -32.44460521567997 -68.36343726104936 0.0 0.0 -7.056855699497178e-15
0.8489999771118164 -0.10899999737739563 1.8739999532699585 25.537424948408262 -35.060841074798034 -149.63427129661918 1.8149670276487562 10.150636872669025 -1.3742803321071049 -4.637411031630343e-07 2.796538150579033e-06 10.445332916580965 93.58691410073183 6.599557589787908 169.06449690963873 -2.3823461407149065e-06 1.4917924964013555e-06 57.98243904687821 2.0735952267018136e-06 -58.48339116502251 28.54324052263632 -3.1805546814635168e-15 0.0 0.0 -100.15125336649712 -7.6690494680717505 176.5218766298883 3.1557631042329315e-07 7.433706066649976e-07 -86.15271579857581 -8.022926960535618e-06 -61.419400103984685 -26.04043289621862 -6.3611093629270335e-15 -1.3241718894150476e-31 2.3854160110976376e-15 128.1857974943054 -81.75230465161049 -175.91395529667747 63.08386980447497 29.745253613378107 -113.41789551814861 76.0094067533765 -51.489019988409645 141.07795930536636 0.0 0.0 3.1805546814635164e-15 -3.9998290693905254 -59.433639296058246 -12.615567941564713 133.892079019066 86.76666350212176 -78.41351106230846 -91.40835147970596 -27.363907835323026 -86.17703149663033 -1.5902773407317584e-15 -3.1805546814635168e-15 -4.4139062980501586e-32
